<mxfile host="app.diagrams.net" modified="2024-02-27T19:09:16.360Z" agent="Mozilla/5.0 (Windows NT 10.0; Win64; x64) AppleWebKit/537.36 (KHTML, like Gecko) Chrome/121.0.0.0 Safari/537.36" etag="sxA7Oz9iLLwGy6pe2Ya6" version="23.1.7" type="device">
  <diagram name="PÃ¡gina-1" id="OqTwMyAIV7nJRMTrw_MZ">
    <mxGraphModel dx="2333" dy="1256" grid="1" gridSize="10" guides="1" tooltips="1" connect="1" arrows="1" fold="1" page="1" pageScale="1" pageWidth="827" pageHeight="1169" math="0" shadow="0">
      <root>
        <mxCell id="0" />
        <mxCell id="1" parent="0" />
        <mxCell id="ZISiidTdWmu6fiYtgswc-3" style="edgeStyle=orthogonalEdgeStyle;rounded=0;orthogonalLoop=1;jettySize=auto;html=1;exitX=0.875;exitY=0.5;exitDx=0;exitDy=0;exitPerimeter=0;" edge="1" parent="1" source="ZISiidTdWmu6fiYtgswc-1" target="ZISiidTdWmu6fiYtgswc-4">
          <mxGeometry relative="1" as="geometry">
            <mxPoint x="300" y="70" as="targetPoint" />
          </mxGeometry>
        </mxCell>
        <mxCell id="ZISiidTdWmu6fiYtgswc-1" value="" style="ellipse;shape=cloud;whiteSpace=wrap;html=1;" vertex="1" parent="1">
          <mxGeometry x="70" y="30" width="120" height="80" as="geometry" />
        </mxCell>
        <mxCell id="ZISiidTdWmu6fiYtgswc-2" value="Internet" style="text;html=1;align=center;verticalAlign=middle;whiteSpace=wrap;rounded=0;" vertex="1" parent="1">
          <mxGeometry x="100" y="55" width="60" height="30" as="geometry" />
        </mxCell>
        <mxCell id="ZISiidTdWmu6fiYtgswc-5" style="edgeStyle=orthogonalEdgeStyle;rounded=0;orthogonalLoop=1;jettySize=auto;html=1;exitX=1;exitY=0.5;exitDx=0;exitDy=0;" edge="1" parent="1" source="ZISiidTdWmu6fiYtgswc-4">
          <mxGeometry relative="1" as="geometry">
            <mxPoint x="470" y="70" as="targetPoint" />
          </mxGeometry>
        </mxCell>
        <mxCell id="ZISiidTdWmu6fiYtgswc-4" value="" style="image;aspect=fixed;perimeter=ellipsePerimeter;html=1;align=center;shadow=0;dashed=0;spacingTop=3;image=img/lib/active_directory/modem.svg;" vertex="1" parent="1">
          <mxGeometry x="280" y="49.25" width="50" height="41.5" as="geometry" />
        </mxCell>
        <mxCell id="ZISiidTdWmu6fiYtgswc-15" style="edgeStyle=orthogonalEdgeStyle;rounded=0;orthogonalLoop=1;jettySize=auto;html=1;exitX=0.5;exitY=1;exitDx=0;exitDy=0;" edge="1" parent="1" source="ZISiidTdWmu6fiYtgswc-7">
          <mxGeometry relative="1" as="geometry">
            <mxPoint x="510" y="180" as="targetPoint" />
          </mxGeometry>
        </mxCell>
        <mxCell id="ZISiidTdWmu6fiYtgswc-7" value="" style="image;html=1;image=img/lib/clip_art/computers/Server_Tower_128x128.png" vertex="1" parent="1">
          <mxGeometry x="470" y="49.25" width="80" height="80" as="geometry" />
        </mxCell>
        <mxCell id="ZISiidTdWmu6fiYtgswc-17" style="edgeStyle=orthogonalEdgeStyle;rounded=0;orthogonalLoop=1;jettySize=auto;html=1;exitX=0;exitY=0.25;exitDx=0;exitDy=0;" edge="1" parent="1" source="ZISiidTdWmu6fiYtgswc-9">
          <mxGeometry relative="1" as="geometry">
            <mxPoint x="410" y="160" as="targetPoint" />
          </mxGeometry>
        </mxCell>
        <mxCell id="ZISiidTdWmu6fiYtgswc-18" style="edgeStyle=orthogonalEdgeStyle;rounded=0;orthogonalLoop=1;jettySize=auto;html=1;exitX=0;exitY=0.5;exitDx=0;exitDy=0;" edge="1" parent="1" source="ZISiidTdWmu6fiYtgswc-9">
          <mxGeometry relative="1" as="geometry">
            <mxPoint x="370" y="215" as="targetPoint" />
          </mxGeometry>
        </mxCell>
        <mxCell id="ZISiidTdWmu6fiYtgswc-19" style="edgeStyle=orthogonalEdgeStyle;rounded=0;orthogonalLoop=1;jettySize=auto;html=1;exitX=0;exitY=0.75;exitDx=0;exitDy=0;" edge="1" parent="1" source="ZISiidTdWmu6fiYtgswc-9">
          <mxGeometry relative="1" as="geometry">
            <mxPoint x="360" y="260" as="targetPoint" />
          </mxGeometry>
        </mxCell>
        <mxCell id="ZISiidTdWmu6fiYtgswc-24" style="edgeStyle=orthogonalEdgeStyle;rounded=0;orthogonalLoop=1;jettySize=auto;html=1;exitX=1;exitY=0.25;exitDx=0;exitDy=0;" edge="1" parent="1" source="ZISiidTdWmu6fiYtgswc-9">
          <mxGeometry relative="1" as="geometry">
            <mxPoint x="600" y="180" as="targetPoint" />
          </mxGeometry>
        </mxCell>
        <mxCell id="ZISiidTdWmu6fiYtgswc-26" style="edgeStyle=orthogonalEdgeStyle;rounded=0;orthogonalLoop=1;jettySize=auto;html=1;exitX=1;exitY=0.5;exitDx=0;exitDy=0;" edge="1" parent="1" source="ZISiidTdWmu6fiYtgswc-9">
          <mxGeometry relative="1" as="geometry">
            <mxPoint x="700" y="150" as="targetPoint" />
          </mxGeometry>
        </mxCell>
        <mxCell id="ZISiidTdWmu6fiYtgswc-28" style="edgeStyle=orthogonalEdgeStyle;rounded=0;orthogonalLoop=1;jettySize=auto;html=1;exitX=1;exitY=0.75;exitDx=0;exitDy=0;" edge="1" parent="1" source="ZISiidTdWmu6fiYtgswc-9">
          <mxGeometry relative="1" as="geometry">
            <mxPoint x="750" y="190" as="targetPoint" />
            <Array as="points">
              <mxPoint x="751" y="233" />
            </Array>
          </mxGeometry>
        </mxCell>
        <mxCell id="ZISiidTdWmu6fiYtgswc-30" style="edgeStyle=orthogonalEdgeStyle;rounded=0;orthogonalLoop=1;jettySize=auto;html=1;exitX=1;exitY=1;exitDx=0;exitDy=0;" edge="1" parent="1" source="ZISiidTdWmu6fiYtgswc-9">
          <mxGeometry relative="1" as="geometry">
            <mxPoint x="720" y="270" as="targetPoint" />
            <Array as="points">
              <mxPoint x="721" y="250" />
            </Array>
          </mxGeometry>
        </mxCell>
        <mxCell id="ZISiidTdWmu6fiYtgswc-9" value="" style="image;html=1;image=img/lib/clip_art/networking/Switch_128x128.png" vertex="1" parent="1">
          <mxGeometry x="472.8" y="180" width="80" height="70" as="geometry" />
        </mxCell>
        <mxCell id="ZISiidTdWmu6fiYtgswc-20" value="" style="image;html=1;image=img/lib/clip_art/computers/Printer_128x128.png" vertex="1" parent="1">
          <mxGeometry x="384" y="90.75" width="60" height="60" as="geometry" />
        </mxCell>
        <mxCell id="ZISiidTdWmu6fiYtgswc-21" value="" style="image;html=1;image=img/lib/clip_art/computers/Printer_128x128.png" vertex="1" parent="1">
          <mxGeometry x="300" y="170" width="60" height="60" as="geometry" />
        </mxCell>
        <mxCell id="ZISiidTdWmu6fiYtgswc-22" value="" style="image;html=1;image=img/lib/clip_art/computers/Printer_128x128.png" vertex="1" parent="1">
          <mxGeometry x="324" y="250" width="60" height="60" as="geometry" />
        </mxCell>
        <mxCell id="ZISiidTdWmu6fiYtgswc-25" value="" style="image;points=[];aspect=fixed;html=1;align=center;shadow=0;dashed=0;image=img/lib/allied_telesis/computer_and_terminals/Personal_Computer.svg;" vertex="1" parent="1">
          <mxGeometry x="610" y="129.25" width="45.6" height="61.800000000000004" as="geometry" />
        </mxCell>
        <mxCell id="ZISiidTdWmu6fiYtgswc-27" value="" style="image;points=[];aspect=fixed;html=1;align=center;shadow=0;dashed=0;image=img/lib/allied_telesis/computer_and_terminals/Personal_Computer.svg;" vertex="1" parent="1">
          <mxGeometry x="680" y="85" width="45.6" height="61.800000000000004" as="geometry" />
        </mxCell>
        <mxCell id="ZISiidTdWmu6fiYtgswc-29" value="" style="image;points=[];aspect=fixed;html=1;align=center;shadow=0;dashed=0;image=img/lib/allied_telesis/computer_and_terminals/Personal_Computer.svg;" vertex="1" parent="1">
          <mxGeometry x="730" y="129.25" width="45.6" height="61.800000000000004" as="geometry" />
        </mxCell>
        <mxCell id="ZISiidTdWmu6fiYtgswc-31" value="" style="image;points=[];aspect=fixed;html=1;align=center;shadow=0;dashed=0;image=img/lib/allied_telesis/computer_and_terminals/Personal_Computer.svg;" vertex="1" parent="1">
          <mxGeometry x="470" y="620" width="45.6" height="61.800000000000004" as="geometry" />
        </mxCell>
        <mxCell id="ZISiidTdWmu6fiYtgswc-52" style="edgeStyle=orthogonalEdgeStyle;rounded=0;orthogonalLoop=1;jettySize=auto;html=1;exitX=0;exitY=1;exitDx=0;exitDy=0;" edge="1" parent="1" source="ZISiidTdWmu6fiYtgswc-33">
          <mxGeometry relative="1" as="geometry">
            <mxPoint x="280" y="610" as="targetPoint" />
          </mxGeometry>
        </mxCell>
        <mxCell id="ZISiidTdWmu6fiYtgswc-53" style="edgeStyle=orthogonalEdgeStyle;rounded=0;orthogonalLoop=1;jettySize=auto;html=1;exitX=0.75;exitY=1;exitDx=0;exitDy=0;" edge="1" parent="1" source="ZISiidTdWmu6fiYtgswc-33">
          <mxGeometry relative="1" as="geometry">
            <mxPoint x="374" y="610" as="targetPoint" />
          </mxGeometry>
        </mxCell>
        <mxCell id="ZISiidTdWmu6fiYtgswc-33" value="" style="image;html=1;image=img/lib/clip_art/networking/Print_Server_128x128.png" vertex="1" parent="1">
          <mxGeometry x="314" y="485" width="80" height="80" as="geometry" />
        </mxCell>
        <mxCell id="ZISiidTdWmu6fiYtgswc-34" value="REDE A:" style="text;html=1;align=center;verticalAlign=middle;whiteSpace=wrap;rounded=0;" vertex="1" parent="1">
          <mxGeometry x="20" y="10" width="60" height="30" as="geometry" />
        </mxCell>
        <mxCell id="ZISiidTdWmu6fiYtgswc-35" value="REDE B:" style="text;html=1;align=center;verticalAlign=middle;whiteSpace=wrap;rounded=0;" vertex="1" parent="1">
          <mxGeometry x="10" y="410" width="130" height="40" as="geometry" />
        </mxCell>
        <mxCell id="ZISiidTdWmu6fiYtgswc-43" style="edgeStyle=orthogonalEdgeStyle;rounded=0;orthogonalLoop=1;jettySize=auto;html=1;exitX=0;exitY=0.5;exitDx=0;exitDy=0;" edge="1" parent="1" source="ZISiidTdWmu6fiYtgswc-42">
          <mxGeometry relative="1" as="geometry">
            <mxPoint x="410" y="525" as="targetPoint" />
          </mxGeometry>
        </mxCell>
        <mxCell id="ZISiidTdWmu6fiYtgswc-48" style="edgeStyle=orthogonalEdgeStyle;rounded=0;orthogonalLoop=1;jettySize=auto;html=1;exitX=0.25;exitY=1;exitDx=0;exitDy=0;" edge="1" parent="1" source="ZISiidTdWmu6fiYtgswc-42">
          <mxGeometry relative="1" as="geometry">
            <mxPoint x="490" y="610" as="targetPoint" />
          </mxGeometry>
        </mxCell>
        <mxCell id="ZISiidTdWmu6fiYtgswc-55" style="edgeStyle=orthogonalEdgeStyle;rounded=0;orthogonalLoop=1;jettySize=auto;html=1;exitX=0.5;exitY=1;exitDx=0;exitDy=0;" edge="1" parent="1" source="ZISiidTdWmu6fiYtgswc-42">
          <mxGeometry relative="1" as="geometry">
            <mxPoint x="570" y="620" as="targetPoint" />
          </mxGeometry>
        </mxCell>
        <mxCell id="ZISiidTdWmu6fiYtgswc-57" style="edgeStyle=orthogonalEdgeStyle;rounded=0;orthogonalLoop=1;jettySize=auto;html=1;exitX=1;exitY=1;exitDx=0;exitDy=0;" edge="1" parent="1" source="ZISiidTdWmu6fiYtgswc-42">
          <mxGeometry relative="1" as="geometry">
            <mxPoint x="630" y="580" as="targetPoint" />
            <Array as="points">
              <mxPoint x="631" y="560" />
            </Array>
          </mxGeometry>
        </mxCell>
        <mxCell id="ZISiidTdWmu6fiYtgswc-59" style="edgeStyle=orthogonalEdgeStyle;rounded=0;orthogonalLoop=1;jettySize=auto;html=1;exitX=1;exitY=0.5;exitDx=0;exitDy=0;" edge="1" parent="1" source="ZISiidTdWmu6fiYtgswc-42">
          <mxGeometry relative="1" as="geometry">
            <mxPoint x="670" y="525" as="targetPoint" />
          </mxGeometry>
        </mxCell>
        <mxCell id="ZISiidTdWmu6fiYtgswc-61" style="edgeStyle=orthogonalEdgeStyle;rounded=0;orthogonalLoop=1;jettySize=auto;html=1;exitX=1;exitY=0.25;exitDx=0;exitDy=0;" edge="1" parent="1" source="ZISiidTdWmu6fiYtgswc-42">
          <mxGeometry relative="1" as="geometry">
            <mxPoint x="670" y="460" as="targetPoint" />
            <Array as="points">
              <mxPoint x="550" y="460" />
              <mxPoint x="650" y="460" />
            </Array>
          </mxGeometry>
        </mxCell>
        <mxCell id="ZISiidTdWmu6fiYtgswc-42" value="" style="image;html=1;image=img/lib/clip_art/networking/Switch_128x128.png" vertex="1" parent="1">
          <mxGeometry x="470" y="490" width="80" height="70" as="geometry" />
        </mxCell>
        <mxCell id="ZISiidTdWmu6fiYtgswc-44" value="" style="image;html=1;image=img/lib/clip_art/computers/Printer_128x128.png" vertex="1" parent="1">
          <mxGeometry x="240" y="620" width="66" height="70" as="geometry" />
        </mxCell>
        <mxCell id="ZISiidTdWmu6fiYtgswc-45" value="" style="image;html=1;image=img/lib/clip_art/computers/Printer_128x128.png" vertex="1" parent="1">
          <mxGeometry x="344" y="620" width="70" height="70" as="geometry" />
        </mxCell>
        <mxCell id="ZISiidTdWmu6fiYtgswc-56" value="" style="image;points=[];aspect=fixed;html=1;align=center;shadow=0;dashed=0;image=img/lib/allied_telesis/computer_and_terminals/Personal_Computer.svg;" vertex="1" parent="1">
          <mxGeometry x="550" y="624.1" width="45.6" height="61.800000000000004" as="geometry" />
        </mxCell>
        <mxCell id="ZISiidTdWmu6fiYtgswc-58" value="" style="image;points=[];aspect=fixed;html=1;align=center;shadow=0;dashed=0;image=img/lib/allied_telesis/computer_and_terminals/Personal_Computer.svg;" vertex="1" parent="1">
          <mxGeometry x="610" y="585" width="45.6" height="61.800000000000004" as="geometry" />
        </mxCell>
        <mxCell id="ZISiidTdWmu6fiYtgswc-60" value="" style="image;points=[];aspect=fixed;html=1;align=center;shadow=0;dashed=0;image=img/lib/allied_telesis/computer_and_terminals/Personal_Computer.svg;" vertex="1" parent="1">
          <mxGeometry x="684.4" y="503.20000000000005" width="45.6" height="61.800000000000004" as="geometry" />
        </mxCell>
        <mxCell id="ZISiidTdWmu6fiYtgswc-62" value="" style="image;points=[];aspect=fixed;html=1;align=center;shadow=0;dashed=0;image=img/lib/allied_telesis/computer_and_terminals/Personal_Computer.svg;" vertex="1" parent="1">
          <mxGeometry x="690" y="428.20000000000005" width="45.6" height="61.800000000000004" as="geometry" />
        </mxCell>
        <mxCell id="ZISiidTdWmu6fiYtgswc-63" value="REDE C:" style="text;html=1;align=center;verticalAlign=middle;whiteSpace=wrap;rounded=0;" vertex="1" parent="1">
          <mxGeometry x="20" y="770" width="130" height="40" as="geometry" />
        </mxCell>
        <mxCell id="ZISiidTdWmu6fiYtgswc-64" value="" style="image;points=[];aspect=fixed;html=1;align=center;shadow=0;dashed=0;image=img/lib/allied_telesis/computer_and_terminals/Personal_Computer.svg;" vertex="1" parent="1">
          <mxGeometry x="239.99999999999997" y="1060" width="45.6" height="61.800000000000004" as="geometry" />
        </mxCell>
        <mxCell id="ZISiidTdWmu6fiYtgswc-65" value="" style="image;points=[];aspect=fixed;html=1;align=center;shadow=0;dashed=0;image=img/lib/allied_telesis/computer_and_terminals/Personal_Computer.svg;" vertex="1" parent="1">
          <mxGeometry x="487.2" y="1060" width="45.6" height="61.800000000000004" as="geometry" />
        </mxCell>
        <mxCell id="ZISiidTdWmu6fiYtgswc-66" value="" style="image;points=[];aspect=fixed;html=1;align=center;shadow=0;dashed=0;image=img/lib/allied_telesis/computer_and_terminals/Personal_Computer.svg;" vertex="1" parent="1">
          <mxGeometry x="314" y="1060" width="45.6" height="61.800000000000004" as="geometry" />
        </mxCell>
        <mxCell id="ZISiidTdWmu6fiYtgswc-67" value="" style="image;points=[];aspect=fixed;html=1;align=center;shadow=0;dashed=0;image=img/lib/allied_telesis/computer_and_terminals/Personal_Computer.svg;" vertex="1" parent="1">
          <mxGeometry x="400" y="1060" width="45.6" height="61.800000000000004" as="geometry" />
        </mxCell>
        <mxCell id="ZISiidTdWmu6fiYtgswc-68" value="" style="image;html=1;image=img/lib/clip_art/computers/Netbook_128x128.png" vertex="1" parent="1">
          <mxGeometry x="630" y="915" width="54.4" height="65" as="geometry" />
        </mxCell>
        <mxCell id="ZISiidTdWmu6fiYtgswc-69" value="" style="image;html=1;image=img/lib/clip_art/computers/Netbook_128x128.png" vertex="1" parent="1">
          <mxGeometry x="650" y="980" width="56" height="60" as="geometry" />
        </mxCell>
        <mxCell id="ZISiidTdWmu6fiYtgswc-70" value="" style="image;html=1;image=img/lib/clip_art/computers/Netbook_128x128.png" vertex="1" parent="1">
          <mxGeometry x="624.4" y="855" width="60" height="60" as="geometry" />
        </mxCell>
        <mxCell id="ZISiidTdWmu6fiYtgswc-82" style="edgeStyle=orthogonalEdgeStyle;rounded=0;orthogonalLoop=1;jettySize=auto;html=1;exitX=1;exitY=0.5;exitDx=0;exitDy=0;" edge="1" parent="1" source="ZISiidTdWmu6fiYtgswc-71">
          <mxGeometry relative="1" as="geometry">
            <mxPoint x="230" y="1089.0000000000002" as="targetPoint" />
          </mxGeometry>
        </mxCell>
        <mxCell id="ZISiidTdWmu6fiYtgswc-71" value="" style="image;html=1;image=img/lib/clip_art/computers/Printer_128x128.png" vertex="1" parent="1">
          <mxGeometry x="90" y="1060" width="60" height="58.2" as="geometry" />
        </mxCell>
        <mxCell id="ZISiidTdWmu6fiYtgswc-74" style="edgeStyle=orthogonalEdgeStyle;rounded=0;orthogonalLoop=1;jettySize=auto;html=1;exitX=1;exitY=0.25;exitDx=0;exitDy=0;" edge="1" parent="1" source="ZISiidTdWmu6fiYtgswc-72">
          <mxGeometry relative="1" as="geometry">
            <mxPoint x="610" y="890" as="targetPoint" />
            <Array as="points">
              <mxPoint x="550" y="890" />
              <mxPoint x="601" y="890" />
            </Array>
          </mxGeometry>
        </mxCell>
        <mxCell id="ZISiidTdWmu6fiYtgswc-75" style="edgeStyle=orthogonalEdgeStyle;rounded=0;orthogonalLoop=1;jettySize=auto;html=1;exitX=1;exitY=0.5;exitDx=0;exitDy=0;" edge="1" parent="1" source="ZISiidTdWmu6fiYtgswc-72">
          <mxGeometry relative="1" as="geometry">
            <mxPoint x="620" y="940" as="targetPoint" />
          </mxGeometry>
        </mxCell>
        <mxCell id="ZISiidTdWmu6fiYtgswc-76" style="edgeStyle=orthogonalEdgeStyle;rounded=0;orthogonalLoop=1;jettySize=auto;html=1;exitX=1;exitY=1;exitDx=0;exitDy=0;" edge="1" parent="1" source="ZISiidTdWmu6fiYtgswc-72">
          <mxGeometry relative="1" as="geometry">
            <mxPoint x="650" y="1010" as="targetPoint" />
            <Array as="points">
              <mxPoint x="550" y="1010" />
              <mxPoint x="640" y="1010" />
            </Array>
          </mxGeometry>
        </mxCell>
        <mxCell id="ZISiidTdWmu6fiYtgswc-77" style="edgeStyle=orthogonalEdgeStyle;rounded=0;orthogonalLoop=1;jettySize=auto;html=1;exitX=0.5;exitY=1;exitDx=0;exitDy=0;" edge="1" parent="1" source="ZISiidTdWmu6fiYtgswc-72">
          <mxGeometry relative="1" as="geometry">
            <mxPoint x="509.608695652174" y="1060" as="targetPoint" />
          </mxGeometry>
        </mxCell>
        <mxCell id="ZISiidTdWmu6fiYtgswc-78" style="edgeStyle=orthogonalEdgeStyle;rounded=0;orthogonalLoop=1;jettySize=auto;html=1;exitX=0.25;exitY=1;exitDx=0;exitDy=0;" edge="1" parent="1" source="ZISiidTdWmu6fiYtgswc-72">
          <mxGeometry relative="1" as="geometry">
            <mxPoint x="430" y="1060" as="targetPoint" />
            <Array as="points">
              <mxPoint x="490" y="1030" />
              <mxPoint x="430" y="1030" />
            </Array>
          </mxGeometry>
        </mxCell>
        <mxCell id="ZISiidTdWmu6fiYtgswc-79" style="edgeStyle=orthogonalEdgeStyle;rounded=0;orthogonalLoop=1;jettySize=auto;html=1;exitX=0;exitY=1;exitDx=0;exitDy=0;" edge="1" parent="1" source="ZISiidTdWmu6fiYtgswc-72">
          <mxGeometry relative="1" as="geometry">
            <mxPoint x="340" y="1060" as="targetPoint" />
          </mxGeometry>
        </mxCell>
        <mxCell id="ZISiidTdWmu6fiYtgswc-81" style="edgeStyle=orthogonalEdgeStyle;rounded=0;orthogonalLoop=1;jettySize=auto;html=1;exitX=0;exitY=0.75;exitDx=0;exitDy=0;" edge="1" parent="1" source="ZISiidTdWmu6fiYtgswc-72">
          <mxGeometry relative="1" as="geometry">
            <mxPoint x="270" y="1060" as="targetPoint" />
          </mxGeometry>
        </mxCell>
        <mxCell id="ZISiidTdWmu6fiYtgswc-84" style="edgeStyle=orthogonalEdgeStyle;rounded=0;orthogonalLoop=1;jettySize=auto;html=1;exitX=0;exitY=0.25;exitDx=0;exitDy=0;" edge="1" parent="1" source="ZISiidTdWmu6fiYtgswc-72">
          <mxGeometry relative="1" as="geometry">
            <mxPoint x="360" y="880" as="targetPoint" />
          </mxGeometry>
        </mxCell>
        <mxCell id="ZISiidTdWmu6fiYtgswc-72" value="" style="image;html=1;image=img/lib/clip_art/networking/Switch_128x128.png" vertex="1" parent="1">
          <mxGeometry x="470" y="890" width="80" height="70" as="geometry" />
        </mxCell>
        <mxCell id="ZISiidTdWmu6fiYtgswc-83" value="" style="verticalLabelPosition=bottom;sketch=0;aspect=fixed;html=1;verticalAlign=top;strokeColor=none;align=center;outlineConnect=0;shape=mxgraph.citrix.file_server;" vertex="1" parent="1">
          <mxGeometry x="330" y="810" width="43.92" height="60" as="geometry" />
        </mxCell>
        <mxCell id="ZISiidTdWmu6fiYtgswc-86" style="edgeStyle=orthogonalEdgeStyle;rounded=0;orthogonalLoop=1;jettySize=auto;html=1;exitX=0.5;exitY=0;exitDx=0;exitDy=0;" edge="1" parent="1" source="ZISiidTdWmu6fiYtgswc-85">
          <mxGeometry relative="1" as="geometry">
            <mxPoint x="510.00000000000045" y="270" as="targetPoint" />
          </mxGeometry>
        </mxCell>
        <mxCell id="ZISiidTdWmu6fiYtgswc-87" style="edgeStyle=orthogonalEdgeStyle;rounded=0;orthogonalLoop=1;jettySize=auto;html=1;exitX=0.5;exitY=1;exitDx=0;exitDy=0;entryX=0.5;entryY=0;entryDx=0;entryDy=0;" edge="1" parent="1" source="ZISiidTdWmu6fiYtgswc-85" target="ZISiidTdWmu6fiYtgswc-72">
          <mxGeometry relative="1" as="geometry">
            <Array as="points">
              <mxPoint x="150" y="780" />
              <mxPoint x="510" y="780" />
            </Array>
          </mxGeometry>
        </mxCell>
        <mxCell id="ZISiidTdWmu6fiYtgswc-91" style="edgeStyle=orthogonalEdgeStyle;rounded=0;orthogonalLoop=1;jettySize=auto;html=1;exitX=1;exitY=0.75;exitDx=0;exitDy=0;entryX=0.25;entryY=0;entryDx=0;entryDy=0;" edge="1" parent="1" source="ZISiidTdWmu6fiYtgswc-85" target="ZISiidTdWmu6fiYtgswc-42">
          <mxGeometry relative="1" as="geometry">
            <mxPoint x="480.0000000000002" y="450" as="targetPoint" />
            <Array as="points">
              <mxPoint x="190" y="440" />
              <mxPoint x="490" y="440" />
            </Array>
          </mxGeometry>
        </mxCell>
        <mxCell id="ZISiidTdWmu6fiYtgswc-85" value="" style="image;html=1;image=img/lib/clip_art/networking/Switch_128x128.png" vertex="1" parent="1">
          <mxGeometry x="110" y="499.1" width="80" height="70" as="geometry" />
        </mxCell>
      </root>
    </mxGraphModel>
  </diagram>
</mxfile>
